<svg xmlns="http://www.w3.org/2000/svg" viewBox="0 0 1100 720">
<rect width="1100" height="720" rx="36" fill="#f4f9fa"/>
<text x="70" y="85" fill="#083543" font-family="Arial" font-size="36" font-weight="700">구성품 안내</text>
<g font-family="Arial" text-anchor="middle">
 <g transform="translate(130 155)"><rect x="0" y="0" width="170" height="360" rx="8" fill="#0796a8"/><text x="85" y="405" fill="#083543" font-size="20" font-weight="700">출력물</text></g>
 <g transform="translate(375 145)"><rect x="74" y="0" width="18" height="385" rx="9" fill="#8da0a7"/><circle cx="83" cy="10" r="13" fill="#173c46"/><text x="83" y="415" fill="#083543" font-size="20" font-weight="700">세로 폴대</text></g>
 <g transform="translate(610 160)"><rect x="0" y="0" width="220" height="28" rx="14" fill="#173c46"/><rect x="0" y="110" width="220" height="28" rx="14" fill="#173c46"/><text x="110" y="185" fill="#083543" font-size="20" font-weight="700">상·하단 바</text></g>
 <g transform="translate(835 355)"><rect x="0" y="0" width="180" height="55" rx="16" fill="#173c46"/><path d="M90 55 L25 145 M90 55 L155 145" stroke="#173c46" stroke-width="18" stroke-linecap="round"/><text x="90" y="190" fill="#083543" font-size="20" font-weight="700">받침대</text></g>
</g>
<path d="M310 335 H360 M530 335 H585 M840 335 H900" stroke="#52c4cc" stroke-width="4" stroke-dasharray="8 8"/>
</svg>